<svg width="22" height="22" viewBox="0 0 22 22" fill="none" xmlns="http://www.w3.org/2000/svg">
<path d="M7.94718 10.7263C8.66032 12.1842 9.84213 13.3607 11.3033 14.0672C11.4102 14.1178 11.5285 14.1398 11.6465 14.1309C11.7644 14.1219 11.878 14.0824 11.9761 14.0163L14.1276 12.5816C14.2228 12.5182 14.3322 12.4795 14.4461 12.469C14.56 12.4585 14.6747 12.4766 14.7798 12.5217L18.8049 14.2467C18.9416 14.3048 19.0558 14.4057 19.1302 14.5343C19.2045 14.6629 19.2351 14.8122 19.2173 14.9597C19.09 15.9552 18.6043 16.8702 17.851 17.5334C17.0978 18.1966 16.1286 18.5624 15.125 18.5625C12.0253 18.5625 9.05252 17.3311 6.86069 15.1393C4.66886 12.9475 3.4375 9.97469 3.4375 6.87497C3.43755 5.87137 3.80342 4.9022 4.46659 4.14893C5.12975 3.39566 6.04475 2.90993 7.04026 2.78271C7.18774 2.76487 7.33703 2.79543 7.46562 2.8698C7.59422 2.94418 7.69517 3.05833 7.75325 3.19506L9.47978 7.22363C9.52444 7.32783 9.54264 7.44146 9.53275 7.5544C9.52287 7.66733 9.4852 7.77607 9.42312 7.87093L7.99343 10.0554C7.92836 10.1537 7.88989 10.2672 7.88179 10.3848C7.87368 10.5023 7.89621 10.62 7.94718 10.7263V10.7263Z" stroke="#CB8734" stroke-linecap="round" stroke-linejoin="round"/>
</svg>
