<svg width="26" height="26" viewBox="0 0 26 26" fill="none" xmlns="http://www.w3.org/2000/svg">
<rect width="26" height="26" rx="12.974" fill="#0DC143"/>
<path d="M17.7009 8.31824C16.5467 7.13975 14.9513 6.5 13.3218 6.5C9.8593 6.5 7.07569 9.29471 7.10964 12.6955C7.10964 13.773 7.41516 14.8168 7.92435 15.7596L7.04175 18.9583L10.3345 18.1166C11.2511 18.6216 12.2695 18.8573 13.2879 18.8573C16.7165 18.8573 19.5001 16.0626 19.5001 12.6618C19.5001 11.0119 18.8551 9.46306 17.7009 8.31824ZM13.3218 17.8135C12.4053 17.8135 11.4887 17.5778 10.708 17.1064L10.5043 17.0054L8.53539 17.5105L9.04459 15.5912L8.9088 15.3892C7.41516 12.9985 8.12803 9.83345 10.5722 8.35191C13.0163 6.87038 16.1733 7.57748 17.667 10.0018C19.1606 12.4261 18.4477 15.5575 16.0036 17.0391C15.2228 17.5441 14.2723 17.8135 13.3218 17.8135ZM16.3091 14.076L15.9357 13.9077C15.9357 13.9077 15.3926 13.672 15.0531 13.5036C15.0192 13.5036 14.9852 13.4699 14.9513 13.4699C14.8494 13.4699 14.7815 13.5036 14.7136 13.5373C14.7136 13.5373 14.6797 13.5709 14.2044 14.1097C14.1705 14.177 14.1026 14.2107 14.0347 14.2107H14.0008C13.9668 14.2107 13.8989 14.177 13.865 14.1434L13.6952 14.076C13.3218 13.9077 12.9824 13.7056 12.7108 13.4363C12.6429 13.3689 12.5411 13.3016 12.4732 13.2342C12.2355 12.9985 11.9979 12.7292 11.8282 12.4261L11.7942 12.3588C11.7603 12.3251 11.7603 12.2914 11.7264 12.2241C11.7264 12.1568 11.7264 12.0894 11.7603 12.0557C11.7603 12.0557 11.8961 11.8874 11.9979 11.7864C12.0658 11.719 12.0998 11.618 12.1677 11.5507C12.2355 11.4497 12.2695 11.315 12.2355 11.214C12.2016 11.0456 11.7942 10.1365 11.6924 9.93446C11.6245 9.83345 11.5566 9.79977 11.4548 9.7661H11.3529C11.285 9.7661 11.1832 9.7661 11.0814 9.7661C11.0135 9.7661 10.9456 9.79977 10.8777 9.79977L10.8437 9.83345C10.7759 9.86712 10.708 9.93446 10.6401 9.96813C10.5722 10.0355 10.5382 10.1028 10.4703 10.1702C10.2327 10.4732 10.0969 10.8436 10.0969 11.214C10.0969 11.4833 10.1648 11.7527 10.2667 11.9884L10.3006 12.0894C10.6061 12.7292 11.0135 13.3016 11.5566 13.8066L11.6924 13.9413C11.7942 14.0423 11.8961 14.1097 11.964 14.2107C12.6769 14.8168 13.4916 15.2545 14.4081 15.4902C14.51 15.5239 14.6457 15.5239 14.7476 15.5575C14.8494 15.5575 14.9852 15.5575 15.087 15.5575C15.2568 15.5575 15.4605 15.4902 15.5962 15.4229C15.6981 15.3555 15.766 15.3555 15.8339 15.2882L15.9018 15.2208C15.9697 15.1535 16.0375 15.1198 16.1054 15.0525C16.1733 14.9851 16.2412 14.9178 16.2752 14.8504C16.3431 14.7158 16.377 14.5474 16.411 14.3791C16.411 14.3117 16.411 14.2107 16.411 14.1434C16.411 14.1434 16.377 14.1097 16.3091 14.076Z" fill="white"/>
</svg>
