<svg width="26" height="26" viewBox="0 0 26 26" fill="none" xmlns="http://www.w3.org/2000/svg">
<rect width="26" height="26" rx="12.974" fill="#675DA9"/>
<path d="M17.6456 8.234C17.3318 7.94552 16.0615 7.02187 13.2298 7.00921C13.2298 7.00921 9.89203 6.80677 8.26489 8.29979C7.35895 9.20573 7.0401 10.5292 7.00721 12.1741C6.97431 13.8164 6.93129 16.8961 9.89962 17.7311H9.90215L9.89962 19.004C9.89962 19.004 9.88191 19.5202 10.221 19.624C10.631 19.7505 10.8739 19.3583 11.2661 18.9357C11.4812 18.7029 11.7773 18.3638 12.0025 18.1031C14.032 18.2727 15.5934 17.883 15.7705 17.8248C16.1804 17.6907 18.501 17.3946 18.878 14.3149C19.2677 11.1467 18.6882 9.13993 17.6456 8.234ZM17.9898 14.0922C17.6709 16.6633 15.7907 16.8252 15.4441 16.9365C15.2973 16.9846 13.9257 17.3263 12.1999 17.2124C12.1999 17.2124 10.9144 18.7636 10.5145 19.166C10.4513 19.2292 10.3779 19.2545 10.3298 19.2419C10.2615 19.2242 10.2412 19.1432 10.2438 19.0243C10.2438 18.8522 10.2539 16.9062 10.2539 16.9062C10.2514 16.9062 10.2514 16.9062 10.2539 16.9062C7.74107 16.2103 7.88784 13.5886 7.91567 12.2171C7.94351 10.8455 8.20162 9.71943 8.96838 8.9628C10.3425 7.71777 13.1792 7.9025 13.1792 7.9025C15.5731 7.91262 16.7194 8.63382 16.9852 8.87423C17.8683 9.63339 18.3188 11.4427 17.9898 14.0922Z" fill="white"/>
<path d="M14.3965 12.2652C14.313 12.2652 14.2421 12.1994 14.2371 12.1133C14.2092 11.5693 13.9537 11.3036 13.4324 11.2757C13.3438 11.2707 13.2755 11.1947 13.2805 11.1062C13.2856 11.0176 13.3615 10.9493 13.4501 10.9543C14.1384 10.9923 14.523 11.3871 14.5585 12.0956C14.5635 12.1842 14.4952 12.2601 14.4066 12.2626C14.4016 12.2652 14.399 12.2652 14.3965 12.2652Z" fill="white"/>
<path d="M15.2163 12.5385H15.2137C15.1252 12.536 15.0543 12.4626 15.0568 12.374C15.0695 11.8274 14.9126 11.3846 14.5786 11.0202C14.2471 10.6558 13.789 10.4584 13.1842 10.4154C13.0957 10.4078 13.0299 10.3319 13.0375 10.2433C13.0451 10.1547 13.121 10.0889 13.2095 10.0965C13.8928 10.1472 14.4318 10.385 14.8164 10.8051C15.2036 11.2277 15.3909 11.7566 15.3782 12.3816C15.3757 12.4702 15.3023 12.5385 15.2163 12.5385Z" fill="white"/>
<path d="M16.0565 12.8674C15.9679 12.8674 15.8971 12.7966 15.8971 12.708C15.8895 11.7287 15.6086 10.9822 15.0367 10.4229C14.4724 9.87125 13.7562 9.59036 12.9136 9.58277C12.825 9.58277 12.7542 9.50938 12.7542 9.42081C12.7542 9.33224 12.8275 9.26139 12.9136 9.26139C13.8423 9.26898 14.6318 9.58024 15.2569 10.1926C15.8844 10.805 16.2058 11.6502 16.2159 12.7029C16.2185 12.794 16.1476 12.8674 16.0565 12.8674C16.059 12.8674 16.059 12.8674 16.0565 12.8674Z" fill="white"/>
<path d="M13.4703 14.2465C13.4703 14.2465 13.6955 14.2668 13.817 14.1175L14.0523 13.8214C14.1662 13.6746 14.442 13.581 14.7103 13.7303C14.8596 13.8138 15.1304 13.9808 15.2974 14.1048C15.477 14.2364 15.8414 14.5401 15.844 14.5426C16.0186 14.6894 16.0591 14.9045 15.9401 15.1348C15.9401 15.1348 15.9401 15.1373 15.9401 15.1398C15.8187 15.3549 15.6542 15.5574 15.4492 15.7446C15.4467 15.7446 15.4467 15.7472 15.4441 15.7472C15.2746 15.8889 15.1076 15.9699 14.9456 15.9876C14.9254 15.9926 14.9026 15.9926 14.8722 15.9926C14.8014 15.9926 14.7305 15.9825 14.6597 15.9597L14.6546 15.9521C14.4016 15.8813 13.9815 15.7041 13.2831 15.317C12.8276 15.0664 12.4505 14.8109 12.1291 14.5553C11.9596 14.4212 11.7875 14.2719 11.6104 14.0947C11.6053 14.0897 11.5977 14.0821 11.5927 14.077C11.5876 14.0719 11.58 14.0643 11.5749 14.0593C11.5699 14.0542 11.5623 14.0466 11.5572 14.0416C11.5522 14.0365 11.5446 14.0289 11.5395 14.0239C11.3649 13.8467 11.2131 13.6746 11.079 13.5051C10.8234 13.1862 10.5678 12.8067 10.3173 12.3512C9.93008 11.6502 9.75295 11.2301 9.68209 10.9796L9.6745 10.9746C9.65172 10.9037 9.6416 10.8328 9.6416 10.762C9.6416 10.7316 9.6416 10.7088 9.64666 10.6886C9.66691 10.5241 9.74788 10.3596 9.88706 10.1901C9.88706 10.1876 9.8896 10.1876 9.8896 10.185C10.0769 9.97752 10.2793 9.81556 10.4944 9.69409C10.4944 9.69409 10.4969 9.69409 10.4995 9.69409C10.7272 9.57516 10.9423 9.61565 11.0916 9.79025C11.0916 9.79025 11.3978 10.1572 11.5294 10.3369C11.6534 10.5064 11.8204 10.7746 11.9039 10.9239C12.0532 11.1922 11.9596 11.468 11.8128 11.5819L11.5167 11.8172C11.3674 11.9387 11.3877 12.1639 11.3877 12.1639C11.3877 12.1639 11.8255 13.829 13.4703 14.2465Z" fill="white"/>
</svg>
